<?xml version="1.0" encoding="UTF-8"?>
<svg version="1.1" xmlns="http://www.w3.org/2000/svg" width="256" height="256">
<path d="M0 0 C10.23 0 20.46 0 31 0 C31 2.97 31 5.94 31 9 C37.6 9 44.2 9 51 9 C51 12.3 51 15.6 51 19 C63.54 19 76.08 19 89 19 C89 15.7 89 12.4 89 9 C108.8 9 128.6 9 149 9 C149 12.3 149 15.6 149 19 C161.87 19 174.74 19 188 19 C188 15.7 188 12.4 188 9 C194.27 9 200.54 9 207 9 C207 6.03 207 3.06 207 0 C217.23 0 227.46 0 238 0 C238 2.97 238 5.94 238 9 C240.97 9 243.94 9 247 9 C247 19.23 247 29.46 247 40 C244.03 40 241.06 40 238 40 C238 46.6 238 53.2 238 60 C234.7 60 231.4 60 228 60 C228 72.54 228 85.08 228 98 C231.3 98 234.6 98 238 98 C238 117.8 238 137.6 238 158 C234.7 158 231.4 158 228 158 C228 170.87 228 183.74 228 197 C231.3 197 234.6 197 238 197 C238 203.27 238 209.54 238 216 C240.97 216 243.94 216 247 216 C247 226.23 247 236.46 247 247 C244.03 247 241.06 247 238 247 C238 249.97 238 252.94 238 256 C227.77 256 217.54 256 207 256 C207 253.03 207 250.06 207 247 C200.73 247 194.46 247 188 247 C188 243.7 188 240.4 188 237 C175.13 237 162.26 237 149 237 C149 240.3 149 243.6 149 247 C129.2 247 109.4 247 89 247 C89 243.7 89 240.4 89 237 C76.46 237 63.92 237 51 237 C51 240.3 51 243.6 51 247 C44.4 247 37.8 247 31 247 C31 249.97 31 252.94 31 256 C20.77 256 10.54 256 0 256 C0 253.03 0 250.06 0 247 C-2.97 247 -5.94 247 -9 247 C-9 236.77 -9 226.54 -9 216 C-6.03 216 -3.06 216 0 216 C0 209.73 0 203.46 0 197 C3.3 196.67 6.6 196.34 10 196 C10 183.79 10 171.58 10 159 C6.7 158.67 3.4 158.34 0 158 C0 138.2 0 118.4 0 98 C4.95 97.505 4.95 97.505 10 97 C10 84.79 10 72.58 10 60 C6.7 60 3.4 60 0 60 C0 53.4 0 46.8 0 40 C-2.97 40 -5.94 40 -9 40 C-9 29.77 -9 19.54 -9 9 C-6.03 9 -3.06 9 0 9 C0 6.03 0 3.06 0 0 Z " fill="#A87D0E" transform="translate(9,0)"/>
<path d="M0 0 C10.23 0 20.46 0 31 0 C31 2.97 31 5.94 31 9 C37.6 9 44.2 9 51 9 C51 12.3 51 15.6 51 19 C63.54 19 76.08 19 89 19 C89 15.7 89 12.4 89 9 C108.8 9 128.6 9 149 9 C149 12.3 149 15.6 149 19 C161.87 19 174.74 19 188 19 C188 15.7 188 12.4 188 9 C194.27 9 200.54 9 207 9 C207 6.03 207 3.06 207 0 C217.23 0 227.46 0 238 0 C238 2.97 238 5.94 238 9 C240.97 9 243.94 9 247 9 C247 19.23 247 29.46 247 40 C244.03 40 241.06 40 238 40 C238 46.6 238 53.2 238 60 C234.7 60 231.4 60 228 60 C228 72.54 228 85.08 228 98 C231.3 98 234.6 98 238 98 C238 117.8 238 137.6 238 158 C234.7 158 231.4 158 228 158 C228 170.87 228 183.74 228 197 C231.3 197 234.6 197 238 197 C238 203.27 238 209.54 238 216 C240.97 216 243.94 216 247 216 C247 226.23 247 236.46 247 247 C244.03 247 241.06 247 238 247 C238 249.97 238 252.94 238 256 C227.77 256 217.54 256 207 256 C207 253.03 207 250.06 207 247 C200.73 247 194.46 247 188 247 C188 243.7 188 240.4 188 237 C175.13 237 162.26 237 149 237 C149 240.3 149 243.6 149 247 C129.2 247 109.4 247 89 247 C89 243.7 89 240.4 89 237 C76.46 237 63.92 237 51 237 C51 240.3 51 243.6 51 247 C44.4 247 37.8 247 31 247 C31 249.97 31 252.94 31 256 C20.77 256 10.54 256 0 256 C0 253.03 0 250.06 0 247 C-2.97 247 -5.94 247 -9 247 C-9 236.77 -9 226.54 -9 216 C-6.03 216 -3.06 216 0 216 C0 209.73 0 203.46 0 197 C3.63 197 7.26 197 11 197 C11 203.6 11 210.2 11 217 C7.7 217 4.4 217 1 217 C1 226.57 1 236.14 1 246 C4.3 246 7.6 246 11 246 C11 242.7 11 239.4 11 236 C17.6 236 24.2 236 31 236 C31 233.03 31 230.06 31 227 C37.27 227 43.54 227 50 227 C50 223.7 50 220.4 50 217 C63.2 217 76.4 217 90 217 C90 220.3 90 223.6 90 227 C109.47 227 128.94 227 149 227 C149 223.7 149 220.4 149 217 C161.87 217 174.74 217 188 217 C188 220.3 188 223.6 188 227 C194.27 227 200.54 227 207 227 C207 229.97 207 232.94 207 236 C213.6 236 220.2 236 227 236 C227 229.4 227 222.8 227 216 C224.03 216 221.06 216 218 216 C218 209.73 218 203.46 218 197 C214.7 197 211.4 197 208 197 C208 184.13 208 171.26 208 158 C211.3 158 214.6 158 218 158 C218 138.2 218 118.4 218 98 C214.7 98 211.4 98 208 98 C208 85.13 208 72.26 208 59 C211.3 59 214.6 59 218 59 C218 52.73 218 46.46 218 40 C220.97 40 223.94 40 227 40 C227 33.4 227 26.8 227 20 C230.3 20 233.6 20 237 20 C237 16.7 237 13.4 237 10 C227.43 10 217.86 10 208 10 C208 13.3 208 16.6 208 20 C201.4 20 194.8 20 188 20 C188 22.97 188 25.94 188 29 C175.13 29 162.26 29 149 29 C149 26.03 149 23.06 149 20 C129.53 20 110.06 20 90 20 C90 23.3 90 26.6 90 30 C76.8 30 63.6 30 50 30 C50 26.7 50 23.4 50 20 C43.73 20 37.46 20 31 20 C31 16.7 31 13.4 31 10 C21.1 10 11.2 10 1 10 C1 19.9 1 29.8 1 40 C4.3 40 7.6 40 11 40 C11 46.27 11 52.54 11 59 C14.3 59 17.6 59 21 59 C21 72.2 21 85.4 21 99 C17.7 99 14.4 99 11 99 C11 118.47 11 137.94 11 158 C7.37 158 3.74 158 0 158 C0 138.2 0 118.4 0 98 C4.95 97.505 4.95 97.505 10 97 C10 84.79 10 72.58 10 60 C6.7 60 3.4 60 0 60 C0 53.4 0 46.8 0 40 C-2.97 40 -5.94 40 -9 40 C-9 29.77 -9 19.54 -9 9 C-6.03 9 -3.06 9 0 9 C0 6.03 0 3.06 0 0 Z " fill="#070500" transform="translate(9,0)"/>
<path d="M0 0 C12.21 0 24.42 0 37 0 C37 8.25 37 16.5 37 25 C33.04 25 29.08 25 25 25 C25 28.96 25 32.92 25 37 C21.04 37 17.08 37 13 37 C13 40.96 13 44.92 13 49 C9.04 49 5.08 49 1 49 C1 52.96 1 56.92 1 61 C-2.96 61 -6.92 61 -11 61 C-11 64.96 -11 68.92 -11 73 C-14.96 73 -18.92 73 -23 73 C-23 76.96 -23 80.92 -23 85 C-26.96 85 -30.92 85 -35 85 C-35 88.96 -35 92.92 -35 97 C-38.96 97 -42.92 97 -47 97 C-47 100.96 -47 104.92 -47 109 C-50.96 109 -54.92 109 -59 109 C-59 112.96 -59 116.92 -59 121 C-62.96 121 -66.92 121 -71 121 C-71 124.96 -71 128.92 -71 133 C-75.29 133 -79.58 133 -84 133 C-84 129.04 -84 125.08 -84 121 C-87.96 121 -91.92 121 -96 121 C-96 117.04 -96 113.08 -96 109 C-99.96 109 -103.92 109 -108 109 C-108 105.04 -108 101.08 -108 97 C-111.63 97 -115.26 97 -119 97 C-119 93.04 -119 89.08 -119 85 C-123.29 85 -127.58 85 -132 85 C-132 76.75 -132 68.5 -132 60 C-119.79 60 -107.58 60 -95 60 C-95 63.96 -95 67.92 -95 72 C-91.04 72 -87.08 72 -83 72 C-83 75.96 -83 79.92 -83 84 C-79.37 84 -75.74 84 -72 84 C-72 80.04 -72 76.08 -72 72 C-68.04 72 -64.08 72 -60 72 C-60 68.04 -60 64.08 -60 60 C-56.04 60 -52.08 60 -48 60 C-48 56.04 -48 52.08 -48 48 C-44.04 48 -40.08 48 -36 48 C-36.020625 46.205625 -36.04125 44.41125 -36.0625 42.5625 C-36.0838122 40.70833878 -36.07226502 38.85287502 -36 37 C-35 36 -35 36 -32.49609375 35.90234375 C-29.6640625 35.93489583 -26.83203125 35.96744792 -24 36 C-24 32.04 -24 28.08 -24 24 C-20.04 24 -16.08 24 -12 24 C-12 20.04 -12 16.08 -12 12 C-8.04 12 -4.08 12 0 12 C0 8.04 0 4.08 0 0 Z " fill="#47FA1A" transform="translate(175,69)"/>
<path d="M0 0 C3.63 0 7.26 0 11 0 C11 6.6 11 13.2 11 20 C7.7 20 4.4 20 1 20 C1 29.57 1 39.14 1 49 C4.3 49 7.6 49 11 49 C11 45.7 11 42.4 11 39 C17.6 39 24.2 39 31 39 C31 36.03 31 33.06 31 30 C37.27 30 43.54 30 50 30 C50 26.7 50 23.4 50 20 C63.2 20 76.4 20 90 20 C90 23.3 90 26.6 90 30 C109.47 30 128.94 30 149 30 C149 26.7 149 23.4 149 20 C161.87 20 174.74 20 188 20 C188 23.3 188 26.6 188 30 C194.27 30 200.54 30 207 30 C207 32.97 207 35.94 207 39 C213.6 39 220.2 39 227 39 C227 32.73 227 26.46 227 20 C230.3 20 233.6 20 237 20 C237 29.57 237 39.14 237 49 C222.5625 48.9375 222.5625 48.9375 218.00219727 48.90991211 C216.82713623 48.90741455 215.6520752 48.90491699 214.44140625 48.90234375 C213.23170166 48.89710693 212.02199707 48.89187012 210.77563477 48.88647461 C208.09187983 48.68224715 208.09187983 48.68224715 207 50 C205.58429877 50.08651611 204.164405 50.10704904 202.74609375 50.09765625 C201.89208984 50.09443359 201.03808594 50.09121094 200.15820312 50.08789062 C199.26037109 50.07951172 198.36253906 50.07113281 197.4375 50.0625 C196.53580078 50.05798828 195.63410156 50.05347656 194.70507812 50.04882812 C192.47002411 50.03700244 190.23500398 50.01906638 188 50 C188 46.7 188 43.4 188 40 C175.13 40 162.26 40 149 40 C149 43.3 149 46.6 149 50 C129.2 50 109.4 50 89 50 C89 46.7 89 43.4 89 40 C76.46 40 63.92 40 51 40 C51 43.3 51 46.6 51 50 C44.4 50 37.8 50 31 50 C31 52.97 31 55.94 31 59 C20.77 59 10.54 59 0 59 C0 56.03 0 53.06 0 50 C-2.97 50 -5.94 50 -9 50 C-9 39.77 -9 29.54 -9 19 C-6.03 19 -3.06 19 0 19 C0 12.73 0 6.46 0 0 Z " fill="#0A0700" transform="translate(9,197)"/>
<path d="M0 0 C10.23 0 20.46 0 31 0 C31 2.97 31 5.94 31 9 C37.6 9 44.2 9 51 9 C51 12.3 51 15.6 51 19 C63.54 19 76.08 19 89 19 C89 15.7 89 12.4 89 9 C108.8 9 128.6 9 149 9 C149 12.3 149 15.6 149 19 C161.87 19 174.74 19 188 19 C188 15.7 188 12.4 188 9 C194.27 9 200.54 9 207 9 C207 12.63 207 16.26 207 20 C200.73 20 194.46 20 188 20 C188 22.97 188 25.94 188 29 C175.13 29 162.26 29 149 29 C149 26.03 149 23.06 149 20 C129.53 20 110.06 20 90 20 C90 23.3 90 26.6 90 30 C76.8 30 63.6 30 50 30 C50 26.7 50 23.4 50 20 C43.73 20 37.46 20 31 20 C31 16.7 31 13.4 31 10 C21.1 10 11.2 10 1 10 C1 19.9 1 29.8 1 40 C4.3 40 7.6 40 11 40 C11 46.27 11 52.54 11 59 C14.3 59 17.6 59 21 59 C21 72.2 21 85.4 21 99 C17.7 99 14.4 99 11 99 C11 118.47 11 137.94 11 158 C7.37 158 3.74 158 0 158 C0 138.2 0 118.4 0 98 C4.95 97.505 4.95 97.505 10 97 C10 84.79 10 72.58 10 60 C6.7 60 3.4 60 0 60 C0 53.4 0 46.8 0 40 C-2.97 40 -5.94 40 -9 40 C-9 29.77 -9 19.54 -9 9 C-6.03 9 -3.06 9 0 9 C0 6.03 0 3.06 0 0 Z " fill="#0F0B00" transform="translate(9,0)"/>
<path d="M0 0 C10.23 0 20.46 0 31 0 C31 2.97 31 5.94 31 9 C33.97 9 36.94 9 40 9 C40 19.23 40 29.46 40 40 C37.03 40 34.06 40 31 40 C31 46.6 31 53.2 31 60 C24.4 60 17.8 60 11 60 C11 72.54 11 85.08 11 98 C7.7 98 4.4 98 1 98 C1 85.13 1 72.26 1 59 C4.3 59 7.6 59 11 59 C11 52.73 11 46.46 11 40 C13.97 40 16.94 40 20 40 C20 33.4 20 26.8 20 20 C23.3 20 26.6 20 30 20 C30 16.7 30 13.4 30 10 C20.43 10 10.86 10 1 10 C1 13.3 1 16.6 1 20 C0.67 20 0.34 20 0 20 C0 13.4 0 6.8 0 0 Z " fill="#090600" transform="translate(216,0)"/>
<path d="M0 0 C3.63 0 7.26 0 11 0 C11 6.6 11 13.2 11 20 C7.7 20 4.4 20 1 20 C1 29.57 1 39.14 1 49 C4.3 49 7.6 49 11 49 C11 45.7 11 42.4 11 39 C17.6 39 24.2 39 31 39 C31 45.6 31 52.2 31 59 C20.77 59 10.54 59 0 59 C0 56.03 0 53.06 0 50 C-2.97 50 -5.94 50 -9 50 C-9 39.77 -9 29.54 -9 19 C-6.03 19 -3.06 19 0 19 C0 12.73 0 6.46 0 0 Z " fill="#4E3906" transform="translate(9,197)"/>
<path d="M0 0 C6.6 0 13.2 0 20 0 C20 6.27 20 12.54 20 19 C22.97 19 25.94 19 29 19 C29 29.23 29 39.46 29 50 C26.03 50 23.06 50 20 50 C20 52.97 20 55.94 20 59 C9.77 59 -0.46 59 -11 59 C-11 53.06 -11 47.12 -11 41 C-10.67 41 -10.34 41 -10 41 C-10 43.64 -10 46.28 -10 49 C-0.43 49 9.14 49 19 49 C19 39.43 19 29.86 19 20 C15.7 20 12.4 20 9 20 C6.03 19.67 3.06 19.34 0 19 C0 12.73 0 6.46 0 0 Z " fill="#3E2E04" transform="translate(227,197)"/>
<path d="M0 0 C6.6 0 13.2 0 20 0 C20 12.87 20 25.74 20 39 C13.4 39 6.8 39 0 39 C0 26.13 0 13.26 0 0 Z " fill="#060400" transform="translate(217,158)"/>
<path d="M0 0 C19.8 0 39.6 0 60 0 C60 3.3 60 6.6 60 10 C40.2 10 20.4 10 0 10 C0 6.7 0 3.4 0 0 Z " fill="#050300" transform="translate(98,237)"/>
<path d="M0 0 C3.3 0 6.6 0 10 0 C10 19.14 10 38.28 10 58 C6.7 58 3.4 58 0 58 C0 38.86 0 19.72 0 0 Z " fill="#D89F12" transform="translate(20,99)"/>
<path d="M0 0 C19.14 0 38.28 0 58 0 C58 3.3 58 6.6 58 10 C38.86 10 19.72 10 0 10 C0 6.7 0 3.4 0 0 Z " fill="#D89F12" transform="translate(99,20)"/>
<path d="M0 0 C19.14 0 38.28 0 58 0 C58 2.97 58 5.94 58 9 C38.86 9 19.72 9 0 9 C0 6.03 0 3.06 0 0 Z " fill="#4B3705" transform="translate(99,227)"/>
<path d="M0 0 C2.97 0 5.94 0 9 0 C9 19.14 9 38.28 9 58 C6.03 58 3.06 58 0 58 C0 38.86 0 19.72 0 0 Z " fill="#4B3705" transform="translate(227,99)"/>
<path d="M0 0 C3.3 0 6.6 0 10 0 C10 9.57 10 19.14 10 29 C0.43 29 -9.14 29 -19 29 C-19.33 25.7 -19.66 22.4 -20 19 C-13.4 19 -6.8 19 0 19 C0 12.73 0 6.46 0 0 Z " fill="#4D3805" transform="translate(236,217)"/>
<path d="M0 0 C9.57 0 19.14 0 29 0 C29 3.3 29 6.6 29 10 C22.73 10 16.46 10 10 10 C10 16.27 10 22.54 10 29 C6.7 29 3.4 29 0 29 C0 19.43 0 9.86 0 0 Z " fill="#DBA212" transform="translate(10,10)"/>
<path d="M0 0 C3.96 0 7.92 0 12 0 C12 3.96 12 7.92 12 12 C8.04 12 4.08 12 0 12 C0 15.96 0 19.92 0 24 C-3.96 24 -7.92 24 -12 24 C-12 27.96 -12 31.92 -12 36 C-15.96 36 -19.92 36 -24 36 C-24 31.71 -24 27.42 -24 23 C-20.37 23 -16.74 23 -13 23 C-13 19.04 -13 15.08 -13 11 C-8.71 11 -4.42 11 0 11 C0 7.37 0 3.74 0 0 Z " fill="#5BC115" transform="translate(128,154)"/>
<path d="M0 0 C3.96 0 7.92 0 12 0 C12 3.96 12 7.92 12 12 C8.04 12 4.08 12 0 12 C0 15.96 0 19.92 0 24 C-3.96 24 -7.92 24 -12 24 C-12 27.96 -12 31.92 -12 36 C-15.96 36 -19.92 36 -24 36 C-24 31.71 -24 27.42 -24 23 C-20.37 23 -16.74 23 -13 23 C-13 19.04 -13 15.08 -13 11 C-8.71 11 -4.42 11 0 11 C0 7.37 0 3.74 0 0 Z " fill="#5AC115" transform="translate(176,106)"/>
<path d="M0 0 C13.2 0 26.4 0 40 0 C40 3.3 40 6.6 40 10 C26.8 10 13.6 10 0 10 C0 6.7 0 3.4 0 0 Z " fill="#4A3705" transform="translate(59,217)"/>
<path d="M0 0 C3.3 0 6.6 0 10 0 C10 13.2 10 26.4 10 40 C6.7 40 3.4 40 0 40 C0 26.8 0 13.6 0 0 Z " fill="#DAA112" transform="translate(30,59)"/>
<path d="M0 0 C13.2 0 26.4 0 40 0 C40 3.3 40 6.6 40 10 C26.8 10 13.6 10 0 10 C0 6.7 0 3.4 0 0 Z " fill="#DAA112" transform="translate(59,30)"/>
<path d="M0 0 C12.87 0 25.74 0 39 0 C39 3.3 39 6.6 39 10 C26.13 10 13.26 10 0 10 C0 6.7 0 3.4 0 0 Z " fill="#493605" transform="translate(158,217)"/>
<path d="M0 0 C3.3 0 6.6 0 10 0 C10 12.87 10 25.74 10 39 C6.7 39 3.4 39 0 39 C0 26.13 0 13.26 0 0 Z " fill="#4A3605" transform="translate(217,158)"/>
<path d="M0 0 C3.3 0 6.6 0 10 0 C10 12.87 10 25.74 10 39 C6.7 39 3.4 39 0 39 C0 26.13 0 13.26 0 0 Z " fill="#DBA212" transform="translate(30,158)"/>
<path d="M0 0 C3.3 0 6.6 0 10 0 C10 12.87 10 25.74 10 39 C6.7 39 3.4 39 0 39 C0 26.13 0 13.26 0 0 Z " fill="#4A3705" transform="translate(217,59)"/>
<path d="M0 0 C12.87 0 25.74 0 39 0 C39 3.3 39 6.6 39 10 C26.13 10 13.26 10 0 10 C0 6.7 0 3.4 0 0 Z " fill="#DBA212" transform="translate(158,30)"/>
<path d="M0 0 C12.87 0 25.74 0 39 0 C39 3.3 39 6.6 39 10 C33.60653012 10.02464849 28.21309275 10.04283531 22.81958008 10.05493164 C20.98331125 10.05997231 19.14704646 10.06680477 17.31079102 10.07543945 C14.67723599 10.08751672 12.04373384 10.09323081 9.41015625 10.09765625 C8.17109276 10.10539818 8.17109276 10.10539818 6.90699768 10.11329651 C4.93763632 10.11349205 2.96838386 10.06204152 1 10 C0.67 9.67 0.34 9.34 0 9 C0 6.03 0 3.06 0 0 Z " fill="#060400" transform="translate(59,227)"/>
<path d="M0 0 C2.97 0 5.94 0 9 0 C9 12.87 9 25.74 9 39 C6.03 39 3.06 39 0 39 C-1.81565436 37.18434564 -1.12861899 34.68730038 -1.13894653 32.27111816 C-1.1369223 31.47008667 -1.13489807 30.66905518 -1.1328125 29.84375 C-1.13376923 29.02628296 -1.13472595 28.20881592 -1.13571167 27.36657715 C-1.13639345 25.63484622 -1.13453929 23.90311276 -1.13037109 22.17138672 C-1.12502279 19.51133518 -1.13031612 16.8514525 -1.13671875 14.19140625 C-1.13605797 12.51302046 -1.1347768 10.83463477 -1.1328125 9.15625 C-1.13483673 8.35521851 -1.13686096 7.55418701 -1.13894653 6.72888184 C-1.11495079 1.11495079 -1.11495079 1.11495079 0 0 Z " fill="#0A0700" transform="translate(20,158)"/>
<path d="M0 0 C12.54 0 25.08 0 38 0 C38 3.3 38 6.6 38 10 C25.46 10 12.92 10 0 10 C0 6.7 0 3.4 0 0 Z " fill="#0B0700" transform="translate(60,19)"/>
<path d="M0 0 C3.3 0 6.6 0 10 0 C10 9.57 10 19.14 10 29 C6.7 29 3.4 29 0 29 C0 19.43 0 9.86 0 0 Z " fill="#DCA212" transform="translate(10,217)"/>
<path d="M0 0 C9.57 0 19.14 0 29 0 C29 3.3 29 6.6 29 10 C19.43 10 9.86 10 0 10 C0 6.7 0 3.4 0 0 Z " fill="#DCA212" transform="translate(217,10)"/>
<path d="M0 0 C10.23 0 20.46 0 31 0 C31 2.97 31 5.94 31 9 C20.77 9 10.54 9 0 9 C0 6.03 0 3.06 0 0 Z " fill="#040300" transform="translate(216,247)"/>
<path d="M0 0 C10.23 0 20.46 0 31 0 C31 2.97 31 5.94 31 9 C20.77 9 10.54 9 0 9 C0 6.03 0 3.06 0 0 Z " fill="#050300" transform="translate(9,247)"/>
<path d="M0 0 C2.97 0 5.94 0 9 0 C9 10.23 9 20.46 9 31 C6.03 31 3.06 31 0 31 C0 20.77 0 10.54 0 0 Z " fill="#050300" transform="translate(247,216)"/>
<path d="M0 0 C2.97 0 5.94 0 9 0 C9 10.23 9 20.46 9 31 C6.03 31 3.06 31 0 31 C0 20.77 0 10.54 0 0 Z " fill="#090600" transform="translate(0,216)"/>
<path d="M0 0 C2.97 0 5.94 0 9 0 C9 10.23 9 20.46 9 31 C6.03 31 3.06 31 0 31 C0 20.77 0 10.54 0 0 Z " fill="#070500" transform="translate(247,9)"/>
<path d="M0 0 C2.97 0 5.94 0 9 0 C9 10.23 9 20.46 9 31 C6.03 31 3.06 31 0 31 C0 20.77 0 10.54 0 0 Z " fill="#090600" transform="translate(0,9)"/>
<path d="M0 0 C10.23 0 20.46 0 31 0 C31 2.97 31 5.94 31 9 C20.77 9 10.54 9 0 9 C0 6.03 0 3.06 0 0 Z " fill="#090600" transform="translate(216,0)"/>
<path d="M0 0 C10.23 0 20.46 0 31 0 C31 2.97 31 5.94 31 9 C20.77 9 10.54 9 0 9 C0 6.03 0 3.06 0 0 Z " fill="#0A0700" transform="translate(9,0)"/>
<path d="M0 0 C10.23 0 20.46 0 31 0 C31 10.23 31 20.46 31 31 C27.37 31 23.74 31 20 31 C20 24.4 20 17.8 20 11 C23.3 11 26.6 11 30 11 C30 7.7 30 4.4 30 1 C20.43 1 10.86 1 1 1 C1 4.3 1 7.6 1 11 C0.67 11 0.34 11 0 11 C0 7.37 0 3.74 0 0 Z " fill="#4E3A06" transform="translate(216,9)"/>
<path d="M0 0 C3.96 0 7.92 0 12 0 C12 3.96 12 7.92 12 12 C15.96 12 19.92 12 24 12 C24 15.96 24 19.92 24 24 C26.59875 23.9690625 26.59875 23.9690625 29.25 23.9375 C35.55227949 23.92999729 41.72784077 24.4026515 48 25 C48 28.96 48 32.92 48 37 C43.71 37 39.42 37 35 37 C35 33.04 35 29.08 35 25 C31.04 25 27.08 25 23 25 C23 21.04 23 17.08 23 13 C19.04 13 15.08 13 11 13 C11 9.04 11 5.08 11 1 C7.37 1 3.74 1 0 1 C0 0.67 0 0.34 0 0 Z " fill="#5DC716" transform="translate(56,165)"/>
<path d="M0 0 C3.63 0 7.26 0 11 0 C11 6.27 11 12.54 11 19 C7.37 19 3.74 19 0 19 C0 12.73 0 6.46 0 0 Z " fill="#0C0800" transform="translate(9,197)"/>
<path d="M0 0 C3.3 0 6.6 0 10 0 C10 6.6 10 13.2 10 20 C6.7 20 3.4 20 0 20 C0 13.4 0 6.8 0 0 Z " fill="#090600" transform="translate(9,40)"/>
<path d="M0 0 C6.27 0 12.54 0 19 0 C19 3.3 19 6.6 19 10 C12.73 10 6.46 10 0 10 C0 6.7 0 3.4 0 0 Z " fill="#050300" transform="translate(197,237)"/>
<path d="M0 0 C3.3 0 6.6 0 10 0 C10 6.27 10 12.54 10 19 C6.7 19 3.4 19 0 19 C0 12.73 0 6.46 0 0 Z " fill="#D79F12" transform="translate(20,198)"/>
<path d="M0 0 C3.3 0 6.6 0 10 0 C10 6.27 10 12.54 10 19 C6.7 19 3.4 19 0 19 C0 12.73 0 6.46 0 0 Z " fill="#050300" transform="translate(237,197)"/>
<path d="M0 0 C3.3 0 6.6 0 10 0 C10 6.27 10 12.54 10 19 C6.7 19 3.4 19 0 19 C0 12.73 0 6.46 0 0 Z " fill="#D79F11" transform="translate(20,40)"/>
<path d="M0 0 C6.27 0 12.54 0 19 0 C19 3.3 19 6.6 19 10 C12.73 10 6.46 10 0 10 C0 6.7 0 3.4 0 0 Z " fill="#D79F12" transform="translate(198,20)"/>
<path d="M0 0 C6.27 0 12.54 0 19 0 C19 3.3 19 6.6 19 10 C12.73 10 6.46 10 0 10 C0 6.7 0 3.4 0 0 Z " fill="#D79F11" transform="translate(40,20)"/>
<path d="M0 0 C6.27 0 12.54 0 19 0 C19 2.97 19 5.94 19 9 C12.73 9 6.46 9 0 9 C0 6.03 0 3.06 0 0 Z " fill="#4C3805" transform="translate(40,227)"/>
<path d="M0 0 C2.97 0 5.94 0 9 0 C9 6.27 9 12.54 9 19 C6.03 19 3.06 19 0 19 C0 12.73 0 6.46 0 0 Z " fill="#4C3805" transform="translate(227,40)"/>
<path d="M0 0 C5.94 0 11.88 0 18 0 C18 2.97 18 5.94 18 9 C12.06 9 6.12 9 0 9 C0 6.03 0 3.06 0 0 Z " fill="#4A3705" transform="translate(198,227)"/>
<path d="M0 0 C3.96 0 7.92 0 12 0 C12 3.96 12 7.92 12 12 C8.04 12 4.08 12 0 12 C0 8.04 0 4.08 0 0 Z " fill="#49CE15" transform="translate(115,165)"/>
<path d="M0 0 C3.96 0 7.92 0 12 0 C12 3.96 12 7.92 12 12 C8.04 12 4.08 12 0 12 C0 8.04 0 4.08 0 0 Z " fill="#4DCA15" transform="translate(140,142)"/>
<path d="M0 0 C3.96 0 7.92 0 12 0 C12 3.96 12 7.92 12 12 C8.04 12 4.08 12 0 12 C0 8.04 0 4.08 0 0 Z " fill="#49CE15" transform="translate(163,117)"/>
<path d="M0 0 C3.96 0 7.92 0 12 0 C12 3.96 12 7.92 12 12 C8.04 12 4.08 12 0 12 C0 8.04 0 4.08 0 0 Z " fill="#4DCA15" transform="translate(188,94)"/>
<path d="M0 0 C3.63 0 7.26 0 11 0 C11 3.96 11 7.92 11 12 C7.37 12 3.74 12 0 12 C0 8.04 0 4.08 0 0 Z " fill="#48CD14" transform="translate(104,177)"/>
<path d="M0 0 C3.63 0 7.26 0 11 0 C11 3.96 11 7.92 11 12 C7.37 12 3.74 12 0 12 C0 8.04 0 4.08 0 0 Z " fill="#49CD14" transform="translate(152,129)"/>
<path d="M0 0 C3.63 0 7.26 0 11 0 C11 3.96 11 7.92 11 12 C7.37 12 3.74 12 0 12 C0 8.04 0 4.08 0 0 Z " fill="#49CE15" transform="translate(200,81)"/>
<path d="M0 0 C3.3 0 6.6 0 10 0 C10 3.3 10 6.6 10 10 C6.7 10 3.4 10 0 10 C0 6.7 0 3.4 0 0 Z " fill="#BB902B" transform="translate(10,236)"/>
<path d="M0 0 C3.3 0 6.6 0 10 0 C10 3.3 10 6.6 10 10 C6.7 10 3.4 10 0 10 C0 6.7 0 3.4 0 0 Z " fill="#BB902B" transform="translate(236,10)"/>
<path d="M0 0 C0.66 0 1.32 0 2 0 C3.125 6.75 3.125 6.75 2 9 C2.66 9.66 3.32 10.32 4 11 C2.68 11 1.36 11 0 11 C0 7.37 0 3.74 0 0 Z " fill="#4FD019" transform="translate(92,190)"/>
</svg>
